<svg width="376" height="169" viewBox="0 0 376 169" fill="none" xmlns="http://www.w3.org/2000/svg">
<g clip-path="url(#clip0_355_131)">
<path d="M54.99 35.29C58.59 34.97 62.71 35.09 67.35 35.64C82.91 37.5 94.81 42.4 103.07 50.34C103.93 51.01 104.23 51.61 103.98 52.14C103.73 52.67 102.74 53.87 101.02 55.73C93.7 63.5 89.67 67.33 88.93 67.24C88.56 67.2 86.79 66.33 83.61 64.63C77.23 61.43 71.45 59.51 66.26 58.89C64.78 58.71 62.53 58.63 59.53 58.65C52.75 58.78 47.23 59.81 42.96 61.74C38.69 63.67 36.36 66.3 35.96 69.64C35.63 72.42 37.14 75.09 40.5 77.65C43.86 80.21 51.05 84.03 62.09 89.11C72.59 93.94 79.59 97.5 83.07 99.79C86.55 102.09 89.93 105.22 93.22 109.18C96.5 113.14 98.6 116.77 99.52 120.08C101.35 125.19 101.93 130.51 101.27 136.07C100.45 142.92 97.74 149.08 93.14 154.54C88.54 160 82.73 163.82 75.71 165.98C67.69 168.59 58.87 169.32 49.25 168.17C34.06 166.35 20.35 160.87 8.10996 151.7C2.53996 147.83 -0.15004 145.25 -4.02788e-05 143.95C0.0899597 143.21 2.16996 140.74 6.23996 136.53C11.37 131.32 14.31 128.76 15.05 128.85C15.23 128.87 17.42 130.26 21.6 133.01C29.68 139.24 38.82 142.96 49 144.18C50.67 144.38 53.56 144.54 57.68 144.66C69.5 144.76 76.2 141.34 77.79 134.39C78.24 132.19 78.06 129.82 77.23 127.28C76.22 124.72 74.11 122.35 70.89 120.18C67.67 118.01 60.82 114.42 50.34 109.41C39.69 104.19 32.63 100.44 29.15 98.14C25.66 95.85 22.38 92.73 19.28 88.79C15.71 84.04 13.61 80.41 12.98 77.89C12.34 75.37 12.28 71.99 12.79 67.72C13.37 62.91 14.5 58.91 16.2 55.73C18.9 50.42 24.01 45.82 31.52 41.92C39.03 38.02 46.85 35.82 55 35.29H54.99Z" fill="#9DCC93"/>
<path d="M99.98 18.6399C100.66 18.0999 103.93 16.4499 109.8 13.6999C115.67 10.9499 119.11 9.62993 120.13 9.74993C121.73 10.1399 124.33 15.5199 127.92 25.9199C131.5 36.3199 133.96 45.7099 135.3 54.0999C135.86 58.2899 136.38 63.9099 136.83 70.9699L137.58 80.9499L142.5 81.1899C151.5 81.7799 158.83 78.8799 164.49 72.4999C170.14 66.1199 173.56 57.6399 174.73 47.0499C175.14 43.3799 175.59 41.1699 176.09 40.3999C177.26 39.0899 184.28 38.1199 197.13 37.4799L200.86 37.2799V42.8399C200.79 43.4499 200.75 44.2699 200.74 45.2999C200.73 46.3299 200.7 47.0499 200.66 47.4599C199.15 61.0999 194.8 73.2999 187.63 84.0399C185.16 87.6799 181.77 91.2799 177.47 94.8199C173.16 98.3599 168.96 100.94 164.86 102.54C160.34 104.31 158.05 105.39 158.01 105.8C157.92 106.62 159.43 108.79 162.54 112.33C165.65 115.87 168.81 118.95 172.02 121.58C183.56 130.9 196.36 137.16 210.43 140.38C212.24 140.79 213.49 141.08 214.2 141.26C214.9 141.44 215.58 141.78 216.25 142.26C216.92 142.75 217.27 143.3 217.3 143.92C217.33 144.54 217.27 145.57 217.11 146.99C217.06 147.4 216.89 148.51 216.58 150.33C216.27 152.15 216.04 153.78 215.88 155.2L213.95 167.04L207.3 165.68C180.47 160.44 158.39 147.68 141.06 127.41C137.6 123.32 135.56 121.24 134.95 121.17C134.54 121.12 134.29 121.51 134.2 122.32C127.12 152.66 122.52 168.12 120.39 168.71L120.08 168.68C118.65 168.52 114.77 167.27 108.44 164.92C102.1 162.57 98.67 161.05 98.12 160.37C97.94 160.15 97.88 159.73 97.95 159.12C98.06 158.1 98.87 155.41 100.39 151.04C104.64 138.74 107.64 124.74 109.38 109.06L110.16 102.04C111.4 87.1299 111.54 74.7299 110.58 64.8299C109.62 54.9399 107.04 43.7799 102.86 31.3599C100.55 24.2999 99.44 20.3699 99.53 19.5499C99.57 19.1499 99.71 18.8499 99.94 18.6699L99.98 18.6399Z" fill="#E5D67C"/>
<path d="M228.51 51.6C234.68 50.36 238.04 49.74 238.6 49.74C240.28 49.76 241.48 51.17 242.2 53.97C244.19 60.33 245.84 72.38 247.16 90.11C247.66 96.27 247.86 104.11 247.77 113.62C247.68 122.95 247.32 131.15 246.69 138.23C244.81 158.54 243.21 168.69 241.91 168.68C240.04 168.66 235.9 168.06 229.48 166.88C223.06 165.7 219.85 164.64 219.86 163.71C219.88 161.47 220.19 158.31 220.79 154.21C222.99 138.94 224.15 125.33 224.27 113.4C224.41 99.6 223.25 84.29 220.81 67.48C219.78 58.89 219.26 54.5 219.26 54.31C219.26 53.75 222.35 52.85 228.52 51.6H228.51Z" fill="#DEC0D6"/>
<path d="M293.43 40.5499C296.79 39.8099 300.24 39.4299 303.78 39.4299C309.94 39.4299 315.25 40.0799 319.73 41.3899C332.41 45.3099 341.46 52.7699 346.87 63.7699C350.23 70.4899 351.91 78.8799 351.91 88.9499V95.1099C351.16 111.52 350.79 122.06 350.79 126.72C350.79 129.71 351.25 131.85 352.19 133.15C355.55 138.37 361.05 141.64 368.7 142.94L374.58 143.78L375.14 148.26C375.51 151.62 375.7 155.53 375.7 160.01V167.28L372.9 166.72C372.34 166.72 371.64 166.68 370.8 166.58C369.96 166.49 368.93 166.35 367.72 166.16C366.5 165.98 365.62 165.88 365.06 165.88C358.35 164.95 352.09 162.71 346.32 159.17L341.56 156.09L335.13 159.45C323.75 165.61 311.35 168.68 297.92 168.68C287.66 168.68 278.43 166.63 270.22 162.52C258.28 156.37 252.32 146.2 252.32 132.02V129.78C252.5 123.62 253.34 119.15 254.84 116.35C259.32 106.47 267.8 99.5599 280.3 95.6499C285.71 93.9699 292.98 93.1299 302.12 93.1299C312.19 93.1299 321.05 93.9699 328.7 95.6499V89.2199C328.7 71.6899 321.15 62.9199 306.04 62.9199C303.43 62.9199 301.38 63.0199 299.89 63.1999C290.94 64.3199 284.97 70.1899 281.98 80.8299C280.86 84.3799 280.11 86.3299 279.74 86.7099H278.62C271.16 86.7099 264.72 85.9699 259.32 84.4699C258.38 84.0999 257.92 83.1699 257.92 81.6699C257.92 79.9899 258.66 76.9599 260.16 72.5799C261.65 68.1999 263.14 64.6999 264.64 62.0899C267.25 57.2399 271.31 52.7599 276.81 48.6599C282.31 44.5599 287.86 41.8499 293.46 40.5499H293.43ZM319.73 117.77C314.69 116.65 308.35 116.09 300.71 116.09C297.72 116.09 294.93 116.28 292.32 116.65C283.18 118.33 277.68 121.78 275.81 127C275.43 127.94 275.25 129.52 275.25 131.76C275.25 134.75 275.71 136.98 276.65 138.47C279.26 142.58 285.79 144.72 296.23 144.9H299.31C308.07 144.9 315.72 143.22 322.25 139.86L327.29 137.34L327.01 128.67C327.01 123.26 326.73 120.28 326.17 119.72C325.42 118.98 323.28 118.32 319.74 117.76L319.73 117.77Z" fill="#9DC7EA"/>
<path d="M210.47 10.3099C209.31 5.25989 211.39 2.02989 216.69 0.599893L217.72 0.319893C220.36 -0.320107 222.59 0.00989282 224.42 1.32989C226.21 2.51989 227.48 4.48989 228.22 7.23989C228.44 8.04989 228.54 8.79989 228.52 9.46989C228.52 10.2099 228.62 10.5999 228.84 10.6399C229.06 10.6799 229.53 10.4699 230.28 9.99989C230.99 9.40989 231.94 8.94989 233.13 8.62989C234.38 8.28989 235.56 8.20989 236.68 8.37989C238.43 8.64989 240.11 9.55989 241.74 11.1299C243.37 12.6999 244.44 14.4199 244.94 16.2999C245.87 19.7399 244.58 22.5599 241.09 24.7699C239.94 25.4799 239.02 25.9299 238.34 26.1099C237.84 26.2399 237.52 26.3799 237.39 26.5199C237.26 26.6599 237.27 26.7999 237.41 26.9699C237.55 27.1399 237.86 27.3499 238.34 27.6199C240.35 28.8899 241.66 30.6099 242.25 32.7999C242.55 33.9199 242.59 35.0499 242.36 36.1899C241.82 38.4099 240.63 40.4399 238.78 42.2799C238.08 42.9399 237.14 43.4199 235.96 43.7399C234.71 44.0799 233.52 44.1299 232.39 43.8999C231.4 43.6999 230.27 43.1999 229.02 42.3999C227.77 41.5999 226.79 40.7899 226.1 39.9699C225.39 39.0899 224.95 38.6699 224.76 38.7199C224.63 38.7499 224.42 39.3099 224.11 40.3999C223.14 43.2699 221.31 45.0699 218.63 45.7999C216.57 46.3599 214.23 46.1199 211.6 45.0799C210.5 44.7099 209.46 44.1199 208.51 43.2999C207.46 42.3799 206.74 41.1999 206.35 39.7599C205.66 37.1999 206.06 34.7099 207.56 32.2999C208.47 30.7199 208.62 30.0099 207.99 30.1699C207.49 30.2999 206.67 30.2599 205.54 30.0299C204.41 29.7999 203.45 29.4899 202.68 29.0899C201.45 28.4799 200.55 27.8399 200 27.1499C199.45 26.4599 198.92 25.4499 198.43 24.1099L198.28 23.5499C197.76 21.6099 197.69 19.7599 198.08 17.9799C198.47 16.1999 199.26 14.8799 200.43 14.0299C201.28 13.4699 202.18 13.0599 203.11 12.7999C205.29 12.2099 207.41 12.2399 209.47 12.8999C210.13 13.1199 210.59 13.1999 210.84 13.1299C210.9 13.1099 210.96 13.0699 211 12.9899C211.04 12.9099 211.06 12.7699 211.04 12.5799C211.02 12.3799 210.99 12.2099 210.95 12.0499L210.75 11.2999L210.48 10.3199L210.47 10.3099ZM223.01 16.5799C221.73 16.3199 220.41 16.3799 219.04 16.7499C218.91 16.7799 218.79 16.8299 218.68 16.8999C218.56 16.9699 218.47 17.0099 218.41 17.0199C216.78 17.9299 215.61 19.1199 214.9 20.5799C214.19 22.0399 214.05 23.5899 214.49 25.2099C214.68 25.8999 214.95 26.5299 215.3 27.0999C216.3 28.8399 217.67 30.0599 219.4 30.7699C221.13 31.4799 222.84 31.5999 224.52 31.1499C226.52 30.6099 228.04 29.4299 229.09 27.6099C229.94 26.0399 230.12 24.3499 229.63 22.5399C229.23 21.0399 228.43 19.7499 227.23 18.6599C226.03 17.5699 224.62 16.8799 223 16.5799H223.01Z" fill="#E5A265"/>
</g>
<defs>
<clipPath id="clip0_355_131">
<rect width="375.69" height="168.69" fill="white"/>
</clipPath>
</defs>
</svg>
