<svg width="28" height="40" viewBox="0 0 28 40" fill="none" xmlns="http://www.w3.org/2000/svg">
<path d="M4.00021 38L10.0002 30M22.0002 38L18.0002 30L12.0002 24L14.0002 12M14.0002 4C14.0002 4.53043 14.2109 5.03914 14.586 5.41421C14.9611 5.78929 15.4698 6 16.0002 6C16.5306 6 17.0394 5.78929 17.4144 5.41421C17.7895 5.03914 18.0002 4.53043 18.0002 4C18.0002 3.46957 17.7895 2.96086 17.4144 2.58579C17.0394 2.21071 16.5306 2 16.0002 2C15.4698 2 14.9611 2.21071 14.586 2.58579C14.2109 2.96086 14.0002 3.46957 14.0002 4Z" stroke="white" stroke-width="4" stroke-linecap="round" stroke-linejoin="round"/>
<path d="M2.00021 20L6.00021 14L14.0002 12L20.0002 18L26.0002 20" stroke="white" stroke-width="4" stroke-linecap="round" stroke-linejoin="round"/>
</svg>
