<svg width="37" height="44" viewBox="0 0 37 44" fill="none" xmlns="http://www.w3.org/2000/svg">
<path d="M10.9574 24V9C10.9574 8.20435 11.2735 7.44129 11.8361 6.87868C12.3987 6.31607 13.1618 6 13.9574 6C14.7531 6 15.5161 6.31607 16.0787 6.87868C16.6413 7.44129 16.9574 8.20435 16.9574 9M16.9574 9V22M16.9574 9V5C16.9574 4.60603 17.035 4.21593 17.1858 3.85195C17.3365 3.48797 17.5575 3.15726 17.8361 2.87868C18.1147 2.6001 18.4454 2.37913 18.8094 2.22836C19.1733 2.0776 19.5634 2 19.9574 2C20.3514 2 20.7415 2.0776 21.1055 2.22836C21.4694 2.37913 21.8001 2.6001 22.0787 2.87868C22.3573 3.15726 22.5783 3.48797 22.729 3.85195C22.8798 4.21593 22.9574 4.60603 22.9574 5V22M22.9574 9C22.9574 8.20435 23.2735 7.44129 23.8361 6.87868C24.3987 6.31607 25.1618 6 25.9574 6C26.7531 6 27.5161 6.31607 28.0787 6.87868C28.6413 7.44129 28.9574 8.20435 28.9574 9V22" stroke="white" stroke-width="4" stroke-linecap="round" stroke-linejoin="round"/>
<path d="M28.9574 13C28.9574 12.2044 29.2735 11.4413 29.8361 10.8787C30.3987 10.3161 31.1618 10 31.9574 10C32.7531 10 33.5161 10.3161 34.0787 10.8787C34.6413 11.4413 34.9574 12.2044 34.9574 13V30C34.9574 33.1826 33.6931 36.2348 31.4427 38.4853C29.1922 40.7357 26.14 42 22.9574 42H18.9574H19.3734C17.3861 42.0003 15.4298 41.5071 13.6802 40.5646C11.9306 39.622 10.4424 38.2597 9.3494 36.6L8.9574 36C8.3334 35.0427 6.14274 31.224 2.3854 24.544C2.0023 23.8631 1.89997 23.0595 2.10017 22.3043C2.30036 21.5491 2.7873 20.9018 3.4574 20.5C4.17146 20.0728 5.00761 19.8959 5.83352 19.9973C6.65944 20.0987 7.42794 20.4727 8.0174 21.06L10.9574 24" stroke="white" stroke-width="4" stroke-linecap="round" stroke-linejoin="round"/>
</svg>
