<svg width="40" height="40" viewBox="0 0 40 40" fill="none" xmlns="http://www.w3.org/2000/svg">
<path d="M14 16H14.02M26 16H26.02M2 20C2 22.3638 2.46558 24.7044 3.37017 26.8883C4.27475 29.0722 5.60062 31.0565 7.27208 32.7279C8.94353 34.3994 10.9278 35.7252 13.1117 36.6298C15.2956 37.5344 17.6362 38 20 38C22.3638 38 24.7044 37.5344 26.8883 36.6298C29.0722 35.7252 31.0565 34.3994 32.7279 32.7279C34.3994 31.0565 35.7252 29.0722 36.6298 26.8883C37.5344 24.7044 38 22.3638 38 20C38 17.6362 37.5344 15.2956 36.6298 13.1117C35.7252 10.9278 34.3994 8.94353 32.7279 7.27208C31.0565 5.60062 29.0722 4.27475 26.8883 3.37017C24.7044 2.46558 22.3638 2 20 2C17.6362 2 15.2956 2.46558 13.1117 3.37017C10.9278 4.27475 8.94353 5.60062 7.27208 7.27208C5.60062 8.94353 4.27475 10.9278 3.37017 13.1117C2.46558 15.2956 2 17.6362 2 20Z" stroke="white" stroke-width="4" stroke-linecap="round" stroke-linejoin="round"/>
<path d="M15 26C15.6518 26.6652 16.4297 27.1937 17.2883 27.5544C18.1468 27.9152 19.0687 28.101 20 28.101C20.9313 28.101 21.8532 27.9152 22.7117 27.5544C23.5703 27.1937 24.3482 26.6652 25 26" stroke="white" stroke-width="4" stroke-linecap="round" stroke-linejoin="round"/>
</svg>
