<svg width="36" height="36" viewBox="0 0 36 36" fill="none" xmlns="http://www.w3.org/2000/svg">
<path d="M14 28V2H34V28M14 10H34" stroke="white" stroke-width="4" stroke-linecap="round" stroke-linejoin="round"/>
<path d="M2 28C2 29.5913 2.63214 31.1174 3.75736 32.2426C4.88258 33.3679 6.4087 34 8 34C9.5913 34 11.1174 33.3679 12.2426 32.2426C13.3679 31.1174 14 29.5913 14 28C14 26.4087 13.3679 24.8826 12.2426 23.7574C11.1174 22.6321 9.5913 22 8 22C6.4087 22 4.88258 22.6321 3.75736 23.7574C2.63214 24.8826 2 26.4087 2 28ZM22 28C22 29.5913 22.6321 31.1174 23.7574 32.2426C24.8826 33.3679 26.4087 34 28 34C29.5913 34 31.1174 33.3679 32.2426 32.2426C33.3679 31.1174 34 29.5913 34 28C34 26.4087 33.3679 24.8826 32.2426 23.7574C31.1174 22.6321 29.5913 22 28 22C26.4087 22 24.8826 22.6321 23.7574 23.7574C22.6321 24.8826 22 26.4087 22 28Z" stroke="white" stroke-width="4" stroke-linecap="round" stroke-linejoin="round"/>
</svg>
