<svg width="40" height="40" viewBox="0 0 40 40" fill="none" xmlns="http://www.w3.org/2000/svg">
<path d="M6 18C7.06087 18 8.07828 18.4214 8.82843 19.1716C9.57857 19.9217 10 20.9391 10 22V26H30V22C30 20.9391 30.4214 19.9217 31.1716 19.1716C31.9217 18.4214 32.9391 18 34 18C35.0609 18 36.0783 18.4214 36.8284 19.1716C37.5786 19.9217 38 20.9391 38 22V30C38 31.0609 37.5786 32.0783 36.8284 32.8284C36.0783 33.5786 35.0609 34 34 34H6C4.93913 34 3.92172 33.5786 3.17157 32.8284C2.42143 32.0783 2 31.0609 2 30V22C2 20.9391 2.42143 19.9217 3.17157 19.1716C3.92172 18.4214 4.93913 18 6 18Z" stroke="white" stroke-width="4" stroke-linecap="round" stroke-linejoin="round"/>
<path d="M6 18V8C6 6.4087 6.63214 4.88258 7.75736 3.75736C8.88258 2.63214 10.4087 2 12 2H28C29.5913 2 31.1174 2.63214 32.2426 3.75736C33.3679 4.88258 34 6.4087 34 8V18M8 34V38M32 34V38" stroke="white" stroke-width="4" stroke-linecap="round" stroke-linejoin="round"/>
</svg>
