<svg width="20" height="20" viewBox="0 0 20 20" fill="none" xmlns="http://www.w3.org/2000/svg">
<path d="M9.99783 1.008H10.3908C9.10617 2.20171 8.28042 3.80784 8.05712 5.54722C7.83382 7.2866 8.22709 9.04923 9.16856 10.5287C10.11 12.0082 11.5402 13.111 13.2104 13.6455C14.8807 14.1799 16.6854 14.1121 18.3108 13.454C17.6856 14.9585 16.6636 16.265 15.354 17.2343C14.0444 18.2035 12.4963 18.799 10.8747 18.9574C9.2532 19.1157 7.61909 18.831 6.14672 18.1334C4.67435 17.4358 3.41894 16.3517 2.51442 14.9966C1.60989 13.6415 1.09018 12.0663 1.01071 10.439C0.931248 8.81166 1.29501 7.1933 2.0632 5.75651C2.83139 4.31973 3.97519 3.11842 5.37259 2.28073C6.76999 1.44304 8.36858 1.00039 9.99783 1V1.008Z" stroke="black" stroke-width="2" stroke-linecap="round" stroke-linejoin="round"/>
</svg>
