<svg width="44" height="38" viewBox="0 0 44 38" fill="none" xmlns="http://www.w3.org/2000/svg">
<path d="M27.6168 20H27.6368M33.6168 20H33.6368M24.0008 12H37.2328C37.789 11.9999 38.3391 12.1158 38.848 12.3403C39.3569 12.5648 39.8134 12.8929 40.1883 13.3038C40.5632 13.7147 40.8483 14.1992 41.0254 14.7265C41.2025 15.2537 41.2677 15.8121 41.2168 16.366L40.0828 28.73C39.9007 30.7169 38.9827 32.5641 37.509 33.9091C36.0352 35.2541 34.112 35.9998 32.1168 36H29.1168C27.1215 35.9998 25.1984 35.2541 23.7246 33.9091C22.2508 32.5641 21.3328 30.7169 21.1508 28.73L20.0168 16.366C19.9659 15.8121 20.0311 15.2537 20.2082 14.7265C20.3852 14.1992 20.6704 13.7147 21.0453 13.3038C21.4202 12.8929 21.8767 12.5648 22.3856 12.3403C22.8945 12.1158 23.4446 11.9999 24.0008 12Z" stroke="white" stroke-width="4" stroke-linecap="round" stroke-linejoin="round"/>
<path d="M27.6168 27C29.6168 28.3333 31.6168 28.3333 33.6168 27M14.8808 25.964C14.6268 25.9882 14.3719 26.0002 14.1168 26H11.1168C9.12153 25.9998 7.19835 25.2541 5.72459 23.9091C4.25082 22.5641 3.33285 20.7169 3.15078 18.73L2.01678 6.366C1.96589 5.81212 2.03107 5.25372 2.20816 4.72645C2.38525 4.19919 2.67035 3.71465 3.04527 3.30379C3.42018 2.89293 3.87666 2.56477 4.38556 2.34028C4.89445 2.11578 5.44457 1.99989 6.00078 2H19.2328C20.2936 2 21.3111 2.42143 22.0612 3.17157C22.8114 3.92172 23.2328 4.93913 23.2328 6M9.61678 10H9.63678M15.6168 10H15.6368" stroke="white" stroke-width="4" stroke-linecap="round" stroke-linejoin="round"/>
<path d="M9.61676 17.9999C11.1448 16.9799 12.6721 16.7399 14.1988 17.2799" stroke="white" stroke-width="4" stroke-linecap="round" stroke-linejoin="round"/>
</svg>
