<svg width="82" height="64" viewBox="0 0 82 64" fill="none" xmlns="http://www.w3.org/2000/svg">
<path d="M30.9736 31.3664C31.307 31.5588 31.307 32.0401 30.9736 32.2326L10.9307 43.8039C10.5974 43.9962 10.1807 43.756 10.1807 43.3712L10.1807 20.2277C10.1807 19.8429 10.5974 19.6027 10.9307 19.7951L30.9736 31.3664Z" stroke="white" stroke-width="3"/>
<path d="M40.7236 0V17.1996" stroke="white" stroke-width="3"/>
<path d="M40.7236 23.1996V40.3993" stroke="white" stroke-width="3"/>
<path d="M40.7236 46.3993V63.5989" stroke="white" stroke-width="3"/>
<path d="M50.4736 32.2326C50.1403 32.0401 50.1403 31.5588 50.4736 31.3664L70.5166 19.7951C70.8499 19.6027 71.2665 19.8429 71.2666 20.2277L71.2666 43.3712C71.2665 43.7561 70.8499 43.9962 70.5166 43.8039L50.4736 32.2326Z" stroke="white" stroke-width="3"/>
</svg>
