<svg width="20" height="22" viewBox="0 0 20 22" fill="none" xmlns="http://www.w3.org/2000/svg">
<path d="M9.99889 17C10.2641 17 10.5185 17.1054 10.706 17.2929C10.8935 17.4804 10.9989 17.7348 10.9989 18V19C10.9989 19.2652 10.8935 19.5196 10.706 19.7071C10.5185 19.8946 10.2641 20 9.99889 20C9.73368 20 9.47932 19.8946 9.29179 19.7071C9.10425 19.5196 8.99889 19.2652 8.99889 19V18C8.99889 17.7348 9.10425 17.4804 9.29179 17.2929C9.47932 17.1054 9.73368 17 9.99889 17ZM16.3629 14.95L17.0699 15.657C17.252 15.8456 17.3528 16.0982 17.3506 16.3604C17.3483 16.6226 17.2431 16.8734 17.0577 17.0588C16.8723 17.2442 16.6215 17.3494 16.3593 17.3517C16.0971 17.354 15.8445 17.2532 15.6559 17.071L14.9489 16.364C14.7667 16.1754 14.6659 15.9228 14.6682 15.6606C14.6705 15.3984 14.7757 15.1476 14.9611 14.9622C15.1465 14.7768 15.3973 14.6716 15.6595 14.6693C15.9217 14.667 16.1743 14.7678 16.3629 14.95ZM3.63489 14.95C3.81485 14.7707 4.05633 14.6665 4.31028 14.6588C4.56423 14.651 4.81161 14.7402 5.00217 14.9082C5.19274 15.0763 5.3122 15.3106 5.33629 15.5635C5.36038 15.8164 5.2873 16.069 5.13189 16.27L5.04889 16.364L4.34189 17.071C4.16193 17.2503 3.92046 17.3545 3.66651 17.3622C3.41256 17.37 3.16518 17.2808 2.97461 17.1128C2.78405 16.9447 2.66459 16.7104 2.64049 16.4575C2.6164 16.2046 2.68948 15.952 2.84489 15.751L2.92789 15.657L3.63489 14.95ZM9.99889 4C11.5902 4 13.1163 4.63214 14.2415 5.75736C15.3668 6.88258 15.9989 8.4087 15.9989 10C15.9989 11.5913 15.3668 13.1174 14.2415 14.2426C13.1163 15.3679 11.5902 16 9.99889 16C8.40759 16 6.88147 15.3679 5.75625 14.2426C4.63103 13.1174 3.99889 11.5913 3.99889 10C3.99889 8.4087 4.63103 6.88258 5.75625 5.75736C6.88147 4.63214 8.40759 4 9.99889 4ZM1.99889 9C2.25377 9.00028 2.49892 9.09788 2.68426 9.27285C2.8696 9.44782 2.98113 9.68695 2.99606 9.94139C3.011 10.1958 2.92822 10.4464 2.76463 10.6418C2.60104 10.8373 2.36899 10.9629 2.11589 10.993L1.99889 11H0.998892C0.744013 10.9997 0.49886 10.9021 0.313524 10.7272C0.128188 10.5522 0.0166572 10.313 0.00172004 10.0586C-0.0132171 9.80416 0.0695667 9.55362 0.233157 9.35817C0.396747 9.16271 0.628796 9.0371 0.881892 9.007L0.998892 9H1.99889ZM18.9989 9C19.2641 9 19.5185 9.10536 19.706 9.29289C19.8935 9.48043 19.9989 9.73478 19.9989 10C19.9989 10.2652 19.8935 10.5196 19.706 10.7071C19.5185 10.8946 19.2641 11 18.9989 11H17.9989C17.7337 11 17.4793 10.8946 17.2918 10.7071C17.1042 10.5196 16.9989 10.2652 16.9989 10C16.9989 9.73478 17.1042 9.48043 17.2918 9.29289C17.4793 9.10536 17.7337 9 17.9989 9H18.9989ZM2.92789 2.929C3.10008 2.75682 3.32918 2.65339 3.57221 2.63811C3.81524 2.62283 4.05549 2.69675 4.24789 2.846L4.34189 2.929L5.04889 3.636C5.22824 3.81596 5.33237 4.05743 5.34012 4.31138C5.34787 4.56533 5.25868 4.81271 5.09064 5.00328C4.92261 5.19384 4.68834 5.31331 4.43542 5.3374C4.18249 5.36149 3.92988 5.28841 3.72889 5.133L3.63489 5.05L2.92789 4.343C2.74042 4.15547 2.63511 3.90116 2.63511 3.636C2.63511 3.37084 2.74042 3.11653 2.92789 2.929ZM17.0699 2.929C17.2574 3.11653 17.3627 3.37084 17.3627 3.636C17.3627 3.90116 17.2574 4.15547 17.0699 4.343L16.3629 5.05C16.2706 5.14551 16.1603 5.22169 16.0383 5.2741C15.9163 5.32651 15.7851 5.3541 15.6523 5.35525C15.5195 5.3564 15.3878 5.3311 15.2649 5.28082C15.142 5.23054 15.0304 5.15629 14.9365 5.0624C14.8426 4.9685 14.7684 4.85685 14.7181 4.73395C14.6678 4.61106 14.6425 4.47938 14.6436 4.3466C14.6448 4.21382 14.6724 4.0826 14.7248 3.9606C14.7772 3.83859 14.8534 3.72825 14.9489 3.636L15.6559 2.929C15.8434 2.74153 16.0977 2.63621 16.3629 2.63621C16.6281 2.63621 16.8824 2.74153 17.0699 2.929ZM9.99889 0C10.2641 0 10.5185 0.105357 10.706 0.292893C10.8935 0.48043 10.9989 0.734784 10.9989 1V2C10.9989 2.26522 10.8935 2.51957 10.706 2.70711C10.5185 2.89464 10.2641 3 9.99889 3C9.73368 3 9.47932 2.89464 9.29179 2.70711C9.10425 2.51957 8.99889 2.26522 8.99889 2V1C8.99889 0.734784 9.10425 0.48043 9.29179 0.292893C9.47932 0.105357 9.73368 0 9.99889 0Z" fill="black"/>
</svg>
