<svg width="40" height="40" viewBox="0 0 40 40" fill="none" xmlns="http://www.w3.org/2000/svg">
<path d="M38 20H36M20 2V4M4 20H2M32.8 7.2L31.4 8.6M7.2 7.2L8.6 8.6M24.6 30H15.4M26 28C27.6791 26.7407 28.9193 24.985 29.5451 22.9817C30.1709 20.9783 30.1505 18.8288 29.4868 16.8377C28.8231 14.8466 27.5498 13.1148 25.8471 11.8876C24.1444 10.6604 22.0988 10 20 10C17.9012 10 15.8556 10.6604 14.1529 11.8876C12.4502 13.1148 11.1769 14.8466 10.5132 16.8377C9.84946 18.8288 9.82906 20.9783 10.4549 22.9817C11.0807 24.985 12.3209 26.7407 14 28C14.7809 28.773 15.3688 29.7189 15.7163 30.7612C16.0637 31.8036 16.1609 32.9131 16 34C16 35.0609 16.4214 36.0783 17.1716 36.8284C17.9217 37.5786 18.9391 38 20 38C21.0609 38 22.0783 37.5786 22.8284 36.8284C23.5786 36.0783 24 35.0609 24 34C23.8391 32.9131 23.9363 31.8036 24.2837 30.7612C24.6312 29.7189 25.2191 28.773 26 28Z" stroke="white" stroke-width="4" stroke-linecap="round" stroke-linejoin="round"/>
</svg>
