<svg width="41" height="36" viewBox="0 0 41 36" fill="none" xmlns="http://www.w3.org/2000/svg">
<path d="M26 9.86762C27.242 10.7991 28.25 12.0069 28.9443 13.3955C29.6385 14.784 30 16.3152 30 17.8676C30 19.4201 29.6385 20.9512 28.9443 22.3398C28.25 23.7283 27.242 24.9361 26 25.8676M31.4 3.86762C33.4879 5.55492 35.172 7.68787 36.3289 10.1103C37.4858 12.5327 38.0863 15.1831 38.0863 17.8676C38.0863 20.5521 37.4858 23.2026 36.3289 25.625C35.172 28.0474 33.4879 30.1803 31.4 31.8676M8 23.8676H4C3.46957 23.8676 2.96086 23.6569 2.58579 23.2818C2.21071 22.9068 2 22.3981 2 21.8676V13.8676C2 13.3372 2.21071 12.8285 2.58579 12.4534C2.96086 12.0783 3.46957 11.8676 4 11.8676H8L15 2.86762C15.1748 2.52808 15.4653 2.26227 15.819 2.11821C16.1727 1.97414 16.5662 1.96134 16.9285 2.08211C17.2908 2.20287 17.598 2.44924 17.7945 2.7767C17.991 3.10416 18.0639 3.49111 18 3.86762V31.8676C18.0639 32.2441 17.991 32.6311 17.7945 32.9585C17.598 33.286 17.2908 33.5324 16.9285 33.6531C16.5662 33.7739 16.1727 33.7611 15.819 33.617C15.4653 33.473 15.1748 33.2072 15 32.8676L8 23.8676Z" stroke="white" stroke-width="4" stroke-linecap="round" stroke-linejoin="round"/>
</svg>
