<svg width="166" height="91" viewBox="0 0 166 91" fill="none" xmlns="http://www.w3.org/2000/svg">
<path d="M1.15191 53.5039C2.00525 53.2479 3.02925 53.1199 4.22391 53.1199C6.61325 53.1199 8.83191 53.2906 10.8799 53.6319C12.9279 53.9733 14.8052 54.1866 16.5119 54.2719L17.5359 53.6319L20.9919 53.3759C21.0772 53.4613 21.2052 53.5039 21.3759 53.5039C21.7172 53.5039 21.9732 53.3759 22.1439 53.1199C22.3146 52.8639 22.5279 52.7359 22.7839 52.7359C23.5519 52.7359 24.4906 52.5653 25.5999 52.2239C26.7092 51.8826 27.4346 51.4559 27.7759 50.9439C28.3732 48.9813 28.7999 47.0186 29.0559 45.0559C29.3119 43.0933 29.4399 41.3866 29.4399 39.9359L28.6719 38.3999C28.6719 37.9733 28.3306 37.6746 27.6479 37.5039C27.0506 37.2479 26.6666 37.1199 26.4959 37.1199L25.0879 36.6079C24.3199 36.6079 23.6372 36.4799 23.0399 36.2239C22.5279 35.9679 21.9306 35.7119 21.2479 35.4559C20.6506 35.1999 19.8826 34.9439 18.9439 34.6879C18.0052 34.4319 16.8106 34.3039 15.3599 34.3039H14.2079C13.8666 34.3039 13.6959 34.1333 13.6959 33.7919C13.0132 33.1093 12.2452 32.6826 11.3919 32.5119C10.6239 32.3413 9.94125 31.8719 9.34391 31.1039C9.17325 31.0186 8.95991 30.6773 8.70391 30.0799C8.44791 29.3973 8.19191 28.6719 7.93591 27.9039C7.67991 27.0506 7.46658 26.2399 7.29591 25.4719C7.12525 24.7039 7.03991 24.1919 7.03991 23.9359C7.46658 23.9359 7.67991 23.6373 7.67991 23.0399C7.67991 22.8693 7.63725 22.6986 7.55191 22.5279C7.55191 22.3573 7.55191 22.1866 7.55191 22.0159C7.55191 21.8453 7.67991 21.6319 7.93591 21.3759L8.44791 20.9919C8.78925 20.6506 8.87458 20.3519 8.70391 20.0959C8.61858 19.7546 8.74658 19.4986 9.08791 19.3279V20.4799L9.34391 20.3519L12.2879 11.1359L16.2559 6.91195L18.5599 5.50395L20.9919 6.39995C21.5892 6.39995 22.2719 6.27195 23.0399 6.01595C23.8932 5.75995 24.6612 5.63195 25.3439 5.63195C26.5386 5.63195 27.9466 5.84528 29.5679 6.27195C31.1892 6.69861 32.7679 7.25328 34.3039 7.93595C35.8399 8.53328 37.2052 9.17328 38.3999 9.85595C39.6799 10.4533 40.5332 10.9226 40.9599 11.2639C40.8746 11.8613 40.7466 12.1599 40.5759 12.1599C40.4052 12.1599 40.3199 12.2453 40.3199 12.4159C40.3199 12.6719 40.3626 12.8853 40.4479 13.0559C40.5332 13.1413 40.5759 13.3119 40.5759 13.5679C40.5759 13.8239 40.3626 14.1226 39.9359 14.4639C39.5092 14.8053 39.1252 14.9759 38.7839 14.9759L31.3599 14.3359H30.9759C30.5492 14.3359 29.8666 14.3359 28.9279 14.3359C28.0746 14.2506 27.4346 14.2079 27.0079 14.2079C25.7279 14.2079 24.5759 14.5493 23.5519 15.2319C22.5279 15.9146 21.6319 16.8533 20.8639 18.0479C20.1812 19.1573 19.6266 20.4373 19.1999 21.8879C18.8586 23.2533 18.6879 24.7039 18.6879 26.2399C18.6879 26.4959 18.8586 26.7519 19.1999 27.0079C19.5412 27.2639 19.9252 27.4773 20.3519 27.6479C20.7786 27.7333 21.2052 27.8186 21.6319 27.9039C22.0586 27.9893 22.3999 28.0319 22.6559 28.0319L23.1679 28.1599C23.7652 28.5866 24.1492 28.8853 24.3199 29.0559C24.4906 29.2266 24.7892 29.3119 25.2159 29.3119H25.7279L27.2639 29.1839L29.4399 29.9519C29.6106 30.0373 29.9092 30.0799 30.3359 30.0799H31.7439C33.1092 30.5919 34.4319 31.1466 35.7119 31.7439C36.9919 32.3413 38.1012 33.1946 39.0399 34.3039C40.0639 35.3279 40.8746 36.6933 41.4719 38.3999C42.0692 40.0213 42.3679 42.1119 42.3679 44.6719C42.3679 45.4399 42.3252 46.2079 42.2399 46.9759C42.1546 47.6586 41.9839 48.4266 41.7279 49.2799L41.5999 49.5359C41.4292 49.7066 41.1306 50.0906 40.7039 50.6879C40.2772 51.2853 39.9786 51.6266 39.8079 51.7119L39.2959 53.1199L38.6559 53.6319L33.6639 60.1599C32.5546 60.3306 31.4879 60.5866 30.4639 60.9279C29.5252 61.3546 28.5439 61.5679 27.5199 61.5679C27.3492 61.5679 27.0079 61.4826 26.4959 61.3119C25.8132 61.4826 25.1732 61.5679 24.5759 61.5679C23.9786 61.5679 23.3812 61.5679 22.7839 61.5679C21.9306 61.5679 20.4372 61.4826 18.3039 61.3119C16.1706 61.1413 13.9092 60.8853 11.5199 60.5439C9.21591 60.2879 6.95458 59.9893 4.73591 59.6479C2.60258 59.3919 1.02391 59.1359 -8.7738e-05 58.8799C-8.7738e-05 58.6239 0.0852456 58.4959 0.255912 58.4959C0.511912 58.4106 0.639912 58.1973 0.639912 57.8559C0.639912 57.7706 0.597246 57.7279 0.511912 57.7279H0.383912C0.213246 57.7279 0.0852456 57.5999 -8.7738e-05 57.3439C0.170579 57.3439 0.426579 57.3013 0.767912 57.2159C1.19458 57.1306 1.40791 57.0026 1.40791 56.8319L1.02391 55.9359L1.27991 55.5519C1.36525 55.3813 1.45058 55.2533 1.53591 55.1679C1.62125 55.0826 1.66391 54.9973 1.66391 54.9119C1.66391 54.4853 1.57858 54.3146 1.40791 54.3999C1.23725 54.4853 1.15191 54.1866 1.15191 53.5039ZM10.1119 15.4879C10.1119 15.6586 9.98391 16.2133 9.72791 17.1519C9.55725 18.0053 9.42925 18.5173 9.34391 18.6879C9.08791 18.6879 8.95991 18.5599 8.95991 18.3039C8.95991 18.2186 9.08791 17.7919 9.34391 17.0239C9.59991 16.1706 9.85591 15.6586 10.1119 15.4879ZM11.0079 12.1599C11.0079 12.2453 11.0506 12.2879 11.1359 12.2879H11.5199L10.3679 14.2079C10.1972 14.2079 10.1119 14.0799 10.1119 13.8239C10.1119 13.6533 10.1972 13.3973 10.3679 13.0559C10.6239 12.6293 10.8372 12.3306 11.0079 12.1599ZM44.1089 55.5519L44.7489 55.0399H44.1089V54.3999C44.1089 54.3146 44.1942 54.1866 44.3649 54.0159L44.7489 54.5279L46.9249 52.0959C46.8396 51.9253 46.7969 51.7973 46.7969 51.7119C46.7969 51.6266 46.6689 51.4986 46.4129 51.3279C46.1569 51.5839 45.9862 51.7546 45.9009 51.8399C45.8156 51.8399 45.3889 51.8399 44.6209 51.8399C44.5356 51.6693 44.4929 51.4559 44.4929 51.1999C44.4929 50.5173 44.6209 49.9626 44.8769 49.5359C45.2182 49.1093 45.3889 48.6826 45.3889 48.2559H45.1329C44.9622 48.2559 44.7489 48.0853 44.4929 47.7439C44.3222 47.7439 44.1516 47.8293 43.9809 47.9999C43.8956 48.0853 43.8102 48.1279 43.7249 48.1279C43.8102 47.7866 44.0236 47.3173 44.3649 46.7199C44.7916 46.0373 45.0049 45.5679 45.0049 45.3119L44.4929 43.6479C44.4929 43.3919 44.4929 43.0933 44.4929 42.7519C44.5782 42.4106 44.6209 42.0266 44.6209 41.5999C44.6209 41.1733 44.5782 40.7466 44.4929 40.3199C44.4929 39.8933 44.4929 39.4239 44.4929 38.9119L44.7489 38.3999C44.7489 37.2053 44.6636 36.6079 44.4929 36.6079C44.3222 36.5226 44.2369 36.2666 44.2369 35.8399C44.2369 35.7546 44.4076 35.5413 44.7489 35.1999C44.5782 35.0293 44.4929 34.9013 44.4929 34.8159C44.4929 34.6453 44.5782 34.4319 44.7489 34.1759C45.0049 33.9199 45.1329 33.6213 45.1329 33.2799L44.7489 33.1519C45.0049 32.4693 45.1756 31.6159 45.2609 30.5919C45.3462 29.5679 45.4316 28.5439 45.5169 27.5199C45.6022 26.4106 45.6449 25.4293 45.6449 24.5759C45.7302 23.6373 45.8582 22.9119 46.0289 22.3999C46.0289 20.2666 46.2422 18.5599 46.6689 17.2799C47.1809 15.9146 47.4369 14.3786 47.4369 12.6719C47.4369 11.8186 47.4796 10.7946 47.5649 9.59995C47.6502 8.40528 47.7356 7.29595 47.8209 6.27195C47.9916 5.16261 48.1196 4.22395 48.2049 3.45595C48.2902 2.68795 48.3329 2.21861 48.3329 2.04795H49.2289L51.4049 0.895947H52.8129C53.2396 0.895947 53.5809 1.10928 53.8369 1.53595C54.1782 1.96261 54.6049 2.38928 55.1169 2.81594L57.1649 4.73595L57.9329 5.50395C57.9329 5.67461 57.8902 5.88795 57.8049 6.14395C57.8049 6.31461 57.8049 6.48528 57.8049 6.65594L57.4209 8.95995C57.4209 9.55728 57.5062 10.6239 57.6769 12.1599C57.9329 13.6106 58.0609 14.6346 58.0609 15.2319C57.9756 15.4026 57.9329 15.4879 57.9329 15.4879L58.0609 18.8159C58.0609 18.9866 57.9756 19.1573 57.8049 19.3279C57.6342 19.4986 57.5489 19.7973 57.5489 20.2239C57.6342 20.3946 57.6769 20.5653 57.6769 20.7359C57.6769 21.0773 57.5489 21.2479 57.2929 21.2479C57.0369 21.2479 56.9089 21.3333 56.9089 21.5039L57.0369 21.6319H57.5489C57.5489 21.8026 57.4636 22.0159 57.2929 22.2719C57.2076 22.5279 57.1649 22.7413 57.1649 22.9119C57.5062 23.0826 57.7196 23.5519 57.8049 24.3199C57.8902 25.0879 57.9329 25.8986 57.9329 26.7519L58.1889 26.8799C58.1036 27.0506 58.0182 27.1786 57.9329 27.2639C57.8476 27.2639 57.8049 27.3493 57.8049 27.5199C57.8049 27.6906 57.8902 27.8613 58.0609 28.0319C58.0609 28.4586 57.9329 28.7146 57.6769 28.7999C57.4209 28.7999 57.2929 29.1413 57.2929 29.8239C57.2929 30.0799 57.5489 30.2079 58.0609 30.2079C57.5489 30.7199 57.2929 30.9333 57.2929 30.8479C57.2929 31.0186 57.4636 31.1466 57.8049 31.2319L58.1889 32.5119C57.6769 33.1946 57.4209 33.7919 57.4209 34.3039V34.5599C57.8476 34.3893 58.2316 34.0906 58.5729 33.6639C58.9996 33.2373 59.3836 32.8959 59.7249 32.6399L62.2849 31.2319L62.0289 31.1039C62.4556 31.1039 62.9249 30.9759 63.4369 30.7199C64.0342 30.3786 64.5889 30.0799 65.1009 29.8239C65.6129 29.4826 66.0396 29.1839 66.3809 28.9279C66.8076 28.5866 67.0636 28.4159 67.1489 28.4159C67.1489 28.2453 67.1062 28.1173 67.0209 28.0319C67.0209 27.9466 67.0209 27.8613 67.0209 27.7759L67.4049 27.3919L73.0369 22.7839L74.1889 21.6319C74.3596 21.5466 74.6582 21.2906 75.0849 20.8639C75.5969 20.3519 75.9382 20.0106 76.1089 19.8399L76.3649 19.5839H75.8529L77.3889 18.0479C77.3036 17.9626 77.2609 17.8773 77.2609 17.7919C77.2609 17.4506 77.4316 17.1093 77.7729 16.7679C78.1142 16.4266 78.4129 16.2559 78.6689 16.2559C78.7542 16.2559 78.7969 16.3413 78.7969 16.5119C78.8822 16.5973 79.0102 16.6399 79.1809 16.6399L79.8209 16.5119C79.9062 16.5119 80.0342 16.6399 80.2049 16.8959C80.4609 17.0666 80.6742 17.1519 80.8449 17.1519C81.0156 17.1519 81.1436 17.1519 81.2289 17.1519C81.3142 17.0666 81.4422 17.0239 81.6129 17.0239C81.8689 17.0239 82.1676 17.1946 82.5089 17.5359C82.8502 17.8773 83.1489 18.3039 83.4049 18.8159C83.7462 19.2426 84.0022 19.7119 84.1729 20.2239C84.4289 20.7359 84.5569 21.1626 84.5569 21.5039L84.1729 22.5279L83.4049 23.2959C82.6369 24.0639 81.8262 24.7466 80.9729 25.3439C80.1196 25.9413 79.3516 26.5813 78.6689 27.2639L73.8049 32.5119L72.7809 33.2799C73.2076 33.9626 73.6342 34.9013 74.0609 36.0959C74.5729 37.2906 74.8289 37.9733 74.8289 38.1439L75.8529 41.8559C76.1942 43.1359 76.8342 44.5013 77.7729 45.9519C78.7969 47.3173 79.7356 48.8106 80.5889 50.4319L80.2049 52.3519L81.6129 53.3759L82.8929 55.0399L82.5089 56.4479L83.7889 57.0879L83.4049 58.6239C83.4049 58.7946 83.4476 59.0506 83.5329 59.3919C83.6182 59.7333 83.7462 59.9466 83.9169 60.0319L84.1729 60.5439C84.5996 62.0799 85.1969 63.8719 85.9649 65.9199C86.8182 67.9679 87.6289 69.9306 88.3969 71.808C89.2502 73.6853 89.9329 75.2213 90.4449 76.416C91.0422 77.696 91.3409 78.336 91.3409 78.336V77.056C91.1702 76.8853 91.0849 76.4159 91.0849 75.6479C91.0849 74.8799 90.9996 74.4106 90.8289 74.24L91.4689 73.9839C91.7249 75.0933 91.9382 75.9466 92.1089 76.5439C92.2796 77.1413 92.4076 77.6106 92.4929 77.952C92.5782 78.3786 92.6209 78.6773 92.6209 78.8479C92.7062 79.104 92.7489 79.36 92.7489 79.6159C92.7489 79.9573 92.7062 80.2133 92.6209 80.3839L91.9809 81.6639L90.5729 82.4319L89.2929 83.712L87.7569 83.4559L86.8609 83.84L86.4769 84.864C86.1356 84.9493 85.7942 84.9493 85.4529 84.864C85.1116 84.864 84.7276 84.9066 84.3009 84.992L84.0449 84.4799C83.8742 83.968 83.5329 83.1146 83.0209 81.92C82.5089 80.8106 81.9542 79.616 81.3569 78.336C80.7596 77.056 80.1622 75.8186 79.5649 74.624C79.0529 73.5146 78.6689 72.7039 78.4129 72.1919L77.0049 70.912L76.3649 69.1199L75.7249 68.8639L74.8289 66.8159C74.1462 65.6213 73.6769 64.6826 73.4209 63.9999C73.2502 63.4026 73.1649 62.9333 73.1649 62.5919C73.1649 62.3359 73.2929 62.1226 73.5489 61.9519L72.7809 60.4159L72.2689 58.8799C70.5622 54.6986 69.1116 51.7119 67.9169 49.9199C66.8076 48.1279 66.1676 47.1466 65.9969 46.9759V46.7199H66.6369V46.3359C66.6369 46.1653 66.5089 45.8666 66.2529 45.4399C66.0822 44.9279 65.9969 44.6293 65.9969 44.5439V44.2879C65.9969 44.1173 66.0396 44.0319 66.1249 44.0319C66.2102 43.9466 66.2529 43.8186 66.2529 43.6479H65.9969L65.2289 42.4959C65.0582 42.4106 64.8876 42.0266 64.7169 41.3439C64.5462 40.6613 64.3756 40.2346 64.2049 40.0639L63.8209 39.1679C62.9676 40.0213 62.0289 40.6613 61.0049 41.0879C60.0662 41.4293 59.2129 41.9839 58.4449 42.7519L56.1409 43.6479V54.3999L56.5249 54.5279C56.3542 55.0399 56.2689 55.4666 56.2689 55.8079C56.2689 56.1493 56.3542 56.3199 56.5249 56.3199L56.2689 56.9599C56.1836 57.1306 56.1409 57.3439 56.1409 57.5999C56.1409 58.0266 56.2262 58.4106 56.3969 58.7519C56.5676 59.0933 56.6529 59.4773 56.6529 59.9039V60.5439L56.3969 60.7999L56.9089 61.4399C56.8236 61.5253 56.7382 61.6106 56.6529 61.6959C56.6529 61.7813 56.5676 61.8666 56.3969 61.9519V61.6959C55.8849 61.8666 55.5862 61.9946 55.5009 62.0799L56.7809 62.3359C56.2689 62.8479 55.7996 63.1039 55.3729 63.1039C55.0316 62.8479 54.8182 62.6773 54.7329 62.5919C54.7329 62.5066 54.5196 62.4639 54.0929 62.4639C53.1542 62.4639 52.1729 62.5919 51.1489 62.8479C50.1249 63.1039 49.3142 63.3173 48.7169 63.4879C47.0102 63.2319 45.8582 62.7626 45.2609 62.0799C44.7489 61.4826 44.4929 60.8426 44.4929 60.1599C44.4929 59.8186 44.5356 59.5626 44.6209 59.3919V59.2639C44.6209 58.9226 44.7489 58.7519 45.0049 58.7519C45.2609 58.6666 45.3889 58.2826 45.3889 57.5999C45.3889 57.3439 44.9196 57.2159 43.9809 57.2159L44.1089 55.5519ZM87.7569 63.9999L87.3729 64.7679L86.2209 63.3599C86.2209 63.3599 86.0929 63.0186 85.8369 62.3359L86.4769 62.7199L87.7569 63.9999ZM46.4129 50.5599C46.8396 50.5599 47.0529 50.3893 47.0529 50.0479C47.0529 49.7066 47.1809 48.9813 47.4369 47.8719C47.2662 47.8719 47.0956 47.9999 46.9249 48.2559C46.7542 48.5119 46.6689 48.7253 46.6689 48.8959C46.6689 48.9813 46.6689 49.0239 46.6689 49.0239C46.7542 49.0239 46.7969 49.0666 46.7969 49.1519C46.7969 49.3226 46.7116 49.4933 46.5409 49.6639C46.3702 49.8346 46.2849 50.0479 46.2849 50.3039C46.2849 50.3893 46.3276 50.4746 46.4129 50.5599ZM90.4449 70.2719L90.7009 70.912L90.3169 71.5519L89.5489 71.2959L89.9329 70.5279L90.4449 70.2719ZM84.4289 59.2639C84.5996 59.1786 84.6849 59.1359 84.6849 59.1359C85.0262 59.1359 85.1969 59.3066 85.1969 59.6479C85.1969 59.9039 85.0689 60.0319 84.8129 60.0319C84.4716 60.0319 84.3009 59.8613 84.3009 59.5199C84.3009 59.4346 84.3436 59.3493 84.4289 59.2639ZM89.2929 68.992H89.5489C89.7196 68.992 89.8049 69.0346 89.8049 69.1199C89.8049 69.2906 89.7196 69.4186 89.5489 69.504C89.3782 69.5893 89.2076 69.6319 89.0369 69.6319C88.8662 69.6319 88.7809 69.5893 88.7809 69.504C88.7809 69.3333 88.9516 69.1626 89.2929 68.992ZM85.4529 60.7999C85.5382 60.9706 85.5809 61.0559 85.5809 61.0559V61.1839V61.3119C85.2396 61.3119 85.0689 61.0986 85.0689 60.6719H85.1969C85.2822 60.6719 85.3676 60.7146 85.4529 60.7999ZM88.2689 66.4319L88.5249 66.8159L87.5009 66.5599L88.2689 66.4319ZM45.0049 46.9759H44.7489L44.6209 47.1039C44.6209 47.1893 44.7916 47.3173 45.1329 47.4879L45.0049 46.9759ZM45.3889 50.0479V49.4079C45.3036 49.4079 45.2182 49.5359 45.1329 49.7919L45.3889 50.0479ZM95.7389 59.6479C95.0562 59.3066 94.6296 58.8799 94.4589 58.3679C94.2882 57.8559 94.2029 57.2159 94.2029 56.4479V54.5279L96.3789 32.2559C96.3789 32.1706 96.3362 32.1279 96.2509 32.1279C96.2509 32.0426 96.2509 31.9146 96.2509 31.7439C96.2509 31.8293 96.2936 31.5306 96.3789 30.8479C96.4642 30.1653 96.5922 29.3973 96.7629 28.5439C96.9336 27.6906 97.1042 26.9226 97.2749 26.2399C97.4456 25.4719 97.6162 25.0879 97.7869 25.0879C97.9576 25.0879 98.2562 25.1733 98.6829 25.3439C99.1949 25.5146 99.4936 25.5999 99.5789 25.5999C100.518 25.8559 101.584 26.1119 102.779 26.3679C104.059 26.5386 105.254 26.8373 106.363 27.2639C107.558 27.6053 108.539 28.1599 109.307 28.9279C110.16 29.6959 110.587 30.7626 110.587 32.1279L109.179 34.9439C108.752 35.7973 108.368 36.6933 108.027 37.6319C107.771 38.4853 107.6 39.3386 107.515 40.1919C107.515 40.2773 107.515 40.5759 107.515 41.0879C107.515 41.5146 107.472 42.0693 107.387 42.7519C107.387 43.3493 107.387 43.9893 107.387 44.6719C107.387 45.3546 107.387 45.9519 107.387 46.4639V48.5119L107.643 48.7679C107.643 48.8533 107.558 49.0239 107.387 49.2799C107.302 49.4506 107.259 49.6639 107.259 49.9199L107.387 50.3039C107.387 50.3893 107.302 50.4746 107.131 50.5599C106.96 50.6453 106.832 50.6879 106.747 50.6879L107.003 51.5839C106.918 51.5839 106.875 51.6266 106.875 51.7119L106.619 52.0959C106.619 52.0106 106.576 51.9679 106.491 51.9679C106.491 51.8826 106.491 51.7973 106.491 51.7119L106.107 51.5839L105.723 51.8399C105.638 52.0106 105.552 52.5226 105.467 53.3759C105.382 54.2293 105.254 54.7413 105.083 54.9119H105.339C105.595 54.9119 105.936 54.5706 106.363 53.8879C106.875 53.1199 107.174 52.7359 107.259 52.7359C107.088 53.6746 106.96 54.7839 106.875 56.0639C106.875 57.2586 106.875 58.3253 106.875 59.2639L107.259 60.2879L105.851 59.9039L105.339 60.2879C105.168 60.2879 104.827 60.3733 104.315 60.5439L103.803 60.7999L101.883 59.9039H101.243L99.3229 60.7999L98.2989 60.6719V60.1599H96.3789L95.7389 59.6479ZM96.2509 14.8479C96.2509 13.0559 96.5069 11.4773 97.0189 10.1119C97.6162 8.74661 98.2989 7.29595 99.0669 5.75994L99.7069 6.14395C99.7922 6.14395 99.9202 6.22928 100.091 6.39995C100.347 6.48528 100.603 6.52795 100.859 6.52795H104.187C104.614 6.52795 105.083 6.82661 105.595 7.42395C106.107 8.02128 106.448 8.31995 106.619 8.31995C106.704 8.31995 106.79 8.31995 106.875 8.31995C107.046 8.23461 107.216 8.19195 107.387 8.19195C107.984 8.19195 108.539 8.40528 109.051 8.83195C109.648 9.17328 110.118 9.64262 110.459 10.2399C110.886 10.8373 111.184 11.4346 111.355 12.0319C111.611 12.6293 111.739 13.1839 111.739 13.6959C111.739 14.2933 111.312 14.9333 110.459 15.6159C109.691 16.2986 108.752 16.9386 107.643 17.5359C106.619 18.0479 105.51 18.5173 104.315 18.9439C103.206 19.2853 102.31 19.4559 101.627 19.4559C100.262 19.4559 99.0242 18.9866 97.9149 18.0479C96.8909 17.1093 96.3362 16.0426 96.2509 14.8479ZM103.803 52.4799C103.803 52.6506 103.803 52.9493 103.803 53.3759C103.888 53.8026 104.016 54.1013 104.187 54.2719L104.443 52.7359L105.083 52.4799V51.8399C104.827 51.8399 104.528 51.9253 104.187 52.0959C103.931 52.2666 103.803 52.3946 103.803 52.4799ZM103.931 59.9039L104.955 59.7759V59.1359L103.675 59.0079L103.931 59.9039ZM105.723 60.7999C105.979 60.9706 106.107 61.1839 106.107 61.4399C106.107 61.7813 105.979 61.9519 105.723 61.9519C105.467 61.9519 105.339 61.7813 105.339 61.4399C105.339 61.0133 105.467 60.7999 105.723 60.7999ZM106.235 49.2799V49.6639C106.235 49.8346 106.32 49.9199 106.491 49.9199L107.131 49.2799V48.5119L106.235 49.2799ZM118.81 65.9199C119.578 63.7866 120.303 61.7813 120.986 59.9039C121.754 58.1119 122.309 57.2159 122.65 57.2159C122.821 57.2159 122.949 57.1733 123.034 57.0879C122.863 57.0879 122.693 57.0026 122.522 56.8319C122.522 56.5759 122.607 56.4053 122.778 56.3199C123.034 56.1493 123.162 55.8933 123.162 55.5519V55.2959L122.778 55.5519C122.778 55.1253 122.863 54.9119 123.034 54.9119C123.29 54.9119 123.418 54.7839 123.418 54.5279H123.162C123.162 54.1013 123.29 53.7599 123.546 53.5039C123.887 53.2479 124.101 52.8639 124.186 52.3519L124.314 51.5839L126.234 44.6719L126.106 44.5439C126.021 44.5439 125.935 44.5439 125.85 44.5439C125.765 44.4586 125.679 44.4159 125.594 44.4159H123.674C123.418 44.3306 122.991 44.2026 122.394 44.0319C121.797 43.7759 121.199 43.5199 120.602 43.2639C120.005 43.0079 119.493 42.7093 119.066 42.3679C118.639 42.0266 118.426 41.7279 118.426 41.4719C118.426 41.0453 118.511 40.8319 118.682 40.8319C118.938 40.8319 119.279 40.7466 119.706 40.5759C118.853 40.2346 118.426 39.5519 118.426 38.5279H119.194C119.279 38.5279 119.535 38.5279 119.962 38.5279C120.389 38.4426 120.815 38.3999 121.242 38.3999C121.669 38.3999 122.053 38.3999 122.394 38.3999C122.821 38.3146 123.077 38.2719 123.162 38.2719H124.954C125.039 38.2719 125.295 38.2719 125.722 38.2719C126.234 38.2719 126.789 38.2719 127.386 38.2719C127.983 38.1866 128.495 38.0586 128.922 37.8879C129.434 37.7173 129.69 37.4613 129.69 37.1199V36.8639L130.97 33.4079L132.25 31.6159L132.506 29.3119L133.146 29.4399L133.402 27.1359L136.09 23.8079L134.938 22.9119L136.218 20.3519C136.303 20.3519 136.517 19.9253 136.858 19.0719C137.199 18.2186 137.583 17.1946 138.01 15.9999C138.522 14.8053 138.991 13.5679 139.418 12.2879C139.93 10.9226 140.314 9.77061 140.57 8.83195L141.21 7.42395C141.125 7.33861 141.082 7.29595 141.082 7.29595C141.082 7.12528 141.125 6.86928 141.21 6.52795C141.381 6.18661 141.679 5.67461 142.106 4.99195C142.191 4.82128 142.277 4.52261 142.362 4.09595C142.533 3.58395 142.703 3.07195 142.874 2.55995C143.045 1.96261 143.215 1.45061 143.386 1.02394C143.642 0.511946 143.941 0.170614 144.282 -5.34058e-05L144.922 0.383945C144.837 0.383945 144.965 0.383945 145.306 0.383945C145.647 0.298613 145.989 0.170614 146.33 -5.34058e-05C147.183 0.767947 147.951 1.32261 148.634 1.66395C149.317 1.91995 149.914 2.13328 150.426 2.30395C151.023 2.47461 151.535 2.68795 151.962 2.94395C152.389 3.19995 152.73 3.66928 152.986 4.35195C152.986 4.52261 153.114 5.03461 153.37 5.88795C153.711 6.74128 153.882 7.33861 153.882 7.67995V7.80795C155.333 9.00261 156.527 10.4959 157.466 12.2879C158.49 14.0799 159.002 15.6159 159.002 16.8959L158.874 17.6639L161.178 26.2399V28.1599C161.69 28.1599 161.946 28.2879 161.946 28.5439C161.775 28.7146 161.69 28.9279 161.69 29.1839L161.434 29.6959L161.69 29.9519V33.2799H161.946C161.946 33.4506 161.903 33.6213 161.818 33.7919C161.733 33.9626 161.69 34.1333 161.69 34.3039L162.202 34.8159C162.117 35.1573 162.074 35.6266 162.074 36.2239C162.074 36.8213 162.117 37.3759 162.202 37.8879C162.287 38.3146 162.415 38.7839 162.586 39.2959C162.33 39.4666 162.202 39.8933 162.202 40.5759C162.202 40.8319 162.245 41.0026 162.33 41.0879C162.415 41.0879 162.458 41.1733 162.458 41.3439C162.458 41.5999 162.415 41.8133 162.33 41.9839L162.97 41.7279L162.586 42.2399L162.97 42.7519L162.586 43.9039C162.586 44.2453 162.714 44.5439 162.97 44.7999C163.311 45.0559 163.482 45.3973 163.482 45.8239C163.311 45.8239 163.226 45.9093 163.226 46.0799V46.2079C163.226 46.4639 163.269 46.6346 163.354 46.7199C163.439 46.7199 163.482 46.8053 163.482 46.9759L163.226 47.4879C163.226 48.4266 163.269 48.9813 163.354 49.1519C163.439 49.3226 163.695 49.7493 164.122 50.4319V50.9439V54.1439C164.293 54.3146 164.421 54.4426 164.506 54.5279C164.677 54.5279 164.762 54.6133 164.762 54.7839C164.762 54.8693 164.719 54.9546 164.634 55.0399L164.89 55.4239C164.89 55.8506 164.933 56.2773 165.018 56.7039C165.189 57.0453 165.274 57.3013 165.274 57.4719C165.274 58.0693 165.061 58.4959 164.634 58.7519C164.293 58.9226 164.122 59.2639 164.122 59.7759C164.037 59.7759 163.951 59.6479 163.866 59.3919C163.866 59.1359 163.695 59.0079 163.354 59.0079C163.354 59.4346 163.311 59.6479 163.226 59.6479C163.226 59.7333 163.055 59.7759 162.714 59.7759H162.074C161.903 59.7759 161.733 59.6053 161.562 59.2639C161.477 58.9226 161.349 58.7519 161.178 58.7519H159.002C158.661 58.7519 158.49 58.7093 158.49 58.6239C158.49 58.4533 158.405 58.3679 158.234 58.3679C157.893 58.3679 157.637 58.4959 157.466 58.7519C157.295 58.9226 156.997 59.0079 156.57 59.0079C155.034 58.6666 154.266 57.6853 154.266 56.0639C154.266 55.8933 154.309 55.7653 154.394 55.6799C154.565 55.5093 154.65 55.3813 154.65 55.2959C154.65 54.1866 154.522 53.2479 154.266 52.4799C154.01 51.6266 153.882 50.6879 153.882 49.6639C154.138 49.6639 154.309 49.7493 154.394 49.9199C154.479 50.0053 154.607 50.1333 154.778 50.3039C154.607 50.3039 154.522 50.5173 154.522 50.9439C154.522 51.2853 154.821 51.5413 155.418 51.7119C155.418 51.5413 155.375 51.4559 155.29 51.4559C155.29 51.4559 155.29 51.4133 155.29 51.3279C155.29 51.2426 155.29 51.1999 155.29 51.1999C155.375 51.1146 155.418 51.0293 155.418 50.9439C155.333 50.6879 155.29 50.3893 155.29 50.0479C155.29 49.6213 155.247 49.1946 155.162 48.7679L154.906 47.2319L154.65 46.8479L154.522 47.9999L154.266 47.3599L153.754 49.0239C153.754 48.7679 153.711 48.4266 153.626 47.9999C153.626 47.4879 153.626 46.9759 153.626 46.4639V44.4159C153.541 44.2453 153.242 44.1173 152.73 44.0319C152.303 43.8613 151.791 43.7759 151.194 43.7759C150.682 43.6906 150.17 43.6479 149.658 43.6479C149.146 43.6479 148.762 43.6479 148.506 43.6479C148.079 43.6479 147.738 43.6906 147.482 43.7759C147.226 43.8613 146.885 43.9039 146.458 43.9039C145.946 43.9039 145.391 43.8613 144.794 43.7759C144.197 43.6053 143.77 43.5199 143.514 43.5199H142.234C141.722 43.5199 141.338 43.7333 141.082 44.1599C140.911 44.5866 140.783 45.0986 140.698 45.6959C140.613 46.2079 140.57 46.7199 140.57 47.2319C140.57 47.7439 140.527 48.0853 140.442 48.2559L139.93 49.2799L140.698 49.5359L140.442 49.9199H139.162C139.162 50.5173 138.949 51.2426 138.522 52.0959C138.095 52.9493 137.711 53.6319 137.37 54.1439L137.114 54.5279C137.114 54.6133 137.071 54.6986 136.986 54.7839C136.986 54.8693 136.986 54.9546 136.986 55.0399V55.2959C136.986 55.5519 137.114 55.8079 137.37 56.0639C136.943 56.4906 136.559 57.0879 136.218 57.8559C135.877 58.5386 135.621 59.2213 135.45 59.9039V61.0559C135.109 61.9946 134.682 62.9759 134.17 63.9999C133.658 65.1093 133.402 66.0479 133.402 66.8159H134.17C133.999 67.0719 133.786 67.1999 133.53 67.1999C133.274 67.1999 133.146 67.3706 133.146 67.7119H133.274C133.445 67.7119 133.53 67.8826 133.53 68.2239C133.53 68.7359 133.359 69.1199 133.018 69.3759C132.762 69.7173 132.463 70.0159 132.122 70.2719C131.866 70.6133 131.567 70.9973 131.226 71.424C130.97 71.8506 130.842 72.4479 130.842 73.216L131.226 73.4719C131.226 73.728 130.97 74.24 130.458 75.0079C129.946 75.776 129.605 76.3733 129.434 76.7999C129.434 77.056 129.178 77.2266 128.666 77.312C128.666 77.5679 128.751 77.6959 128.922 77.6959C129.093 77.6959 129.263 77.7386 129.434 77.8239C129.263 78.1653 129.093 78.4213 128.922 78.5919C128.751 78.7626 128.666 79.0186 128.666 79.36L129.434 79.104C129.434 79.4453 129.349 79.6586 129.178 79.7439C129.093 79.8293 129.05 80 129.05 80.256V80.3839L127.642 83.84H128.026L127.514 87.68C127.258 88.0213 127.13 88.2773 127.13 88.448C127.13 88.704 127.045 89.0453 126.874 89.472L127.002 89.6C127.002 89.7706 126.789 89.8986 126.362 89.984C126.021 90.0693 125.637 90.3253 125.21 90.752C125.039 90.752 124.826 90.624 124.57 90.368C124.399 90.112 124.314 89.8986 124.314 89.728C124.314 89.6426 124.357 89.5573 124.442 89.472C124.015 89.216 123.802 89.0453 123.802 88.96C123.802 88.8746 123.631 88.832 123.29 88.832L122.906 89.344C122.735 89.856 122.65 90.0693 122.65 89.984L119.834 89.6L122.266 88.832C122.095 88.7466 121.583 88.6613 120.73 88.576C119.962 88.576 119.45 88.576 119.194 88.576C119.023 88.7466 118.938 88.8746 118.938 88.96C118.938 89.0453 118.81 89.0879 118.554 89.0879V88.1919C118.469 88.2773 118.383 88.32 118.298 88.32C118.127 88.32 117.829 88.2346 117.402 88.064C116.975 87.9786 116.591 87.936 116.25 87.936V87.2959C115.653 87.2959 115.183 87.424 114.842 87.68C114.415 87.2533 114.031 86.6986 113.69 86.016C113.434 85.4186 113.221 85.0346 113.05 84.864C113.647 84.5226 113.946 84.0959 113.946 83.584C114.031 83.072 114.074 82.4746 114.074 81.792H114.458L115.098 83.072C115.269 81.9626 115.525 80.7679 115.866 79.4879C116.293 78.2079 116.506 77.0986 116.506 76.16V74.752L116.89 73.216C117.231 72.5333 117.487 72.0213 117.658 71.6799C117.829 71.3386 117.999 70.8693 118.17 70.2719L118.554 69.7599H119.962L122.01 69.1199V69.7599L121.242 71.1679V72.5759L122.138 73.344C122.138 72.9173 122.351 72.4053 122.778 71.808C123.29 71.2959 123.546 70.8693 123.546 70.5279V68.4799C123.546 68.2239 123.418 68.0106 123.162 67.8399C122.991 67.7546 122.821 67.7119 122.65 67.7119H122.01L121.242 68.4799H119.194L118.81 65.9199ZM144.538 36.8639H146.202C146.543 36.8639 147.055 36.8639 147.738 36.8639C148.506 36.8639 149.231 36.8213 149.914 36.7359C150.682 36.5653 151.322 36.3519 151.834 36.0959C152.346 35.8399 152.602 35.4986 152.602 35.0719H152.09V33.2799C152.005 33.2799 151.962 33.2373 151.962 33.1519V32.3839H151.706C151.706 32.2133 151.749 32.0853 151.834 31.9999C151.919 31.9146 151.962 31.7866 151.962 31.6159V31.3599L151.322 31.2319C151.578 31.2319 151.791 31.1466 151.962 30.9759L151.706 29.9519V29.6959C151.706 29.5253 151.749 29.4399 151.834 29.4399C151.919 29.3546 151.962 29.1839 151.962 28.9279C151.962 28.4159 151.791 27.9039 151.45 27.3919C151.194 26.8799 151.066 26.4106 151.066 25.9839L151.322 25.0879L149.914 21.6319V21.3759C149.914 21.2053 149.829 20.9493 149.658 20.6079C149.487 20.2666 149.402 20.0533 149.402 19.9679C148.634 22.1866 147.781 24.7466 146.842 27.6479C145.903 30.4639 144.965 32.9386 144.026 35.0719L143.77 36.6079L144.538 36.8639ZM119.706 76.16C119.706 76.3306 119.621 76.7573 119.45 77.44L119.194 78.208V81.792L119.962 81.152C119.962 80.7253 120.005 80.3413 120.09 80C120.261 79.6586 120.346 79.3173 120.346 78.976V75.3919L119.706 76.16ZM117.914 76.416C117.743 76.8426 117.573 77.2693 117.402 77.6959C117.231 78.1226 117.146 78.5493 117.146 78.976V80.896L117.914 78.976V76.416ZM155.546 55.9359V56.3199C155.546 56.9173 155.759 57.2159 156.186 57.2159C156.186 57.1306 156.186 57.0026 156.186 56.8319C156.271 56.5759 156.314 56.3626 156.314 56.1919C156.314 55.6799 156.143 55.4239 155.802 55.4239C155.631 55.4239 155.546 55.5946 155.546 55.9359ZM122.65 73.9839C122.309 73.9839 122.138 74.2399 122.138 74.752C122.138 75.1786 122.309 75.3919 122.65 75.3919C123.077 75.3919 123.29 75.1786 123.29 74.752C123.29 74.2399 123.077 73.9839 122.65 73.9839ZM121.242 73.344C120.901 73.344 120.73 73.6 120.73 74.1119C120.73 74.5386 120.901 74.752 121.242 74.752C121.669 74.752 121.882 74.5386 121.882 74.1119C121.882 73.6 121.669 73.344 121.242 73.344ZM122.266 87.936C122.266 87.8506 121.882 87.808 121.114 87.808C120.431 87.808 120.047 87.808 119.962 87.808C119.877 87.808 119.834 87.8506 119.834 87.936L119.962 88.1919H120.858C121.199 88.1919 121.498 88.1919 121.754 88.1919C122.095 88.1919 122.266 88.1066 122.266 87.936ZM117.146 82.4319C117.146 82.0053 117.018 81.792 116.762 81.792C116.591 81.792 116.506 82.0053 116.506 82.4319C116.506 82.7733 116.591 82.944 116.762 82.944C117.018 82.944 117.146 82.7733 117.146 82.4319ZM155.418 53.2479V53.6319V54.3999V54.6559H155.674C155.674 54.4853 155.674 54.3573 155.674 54.2719C155.759 54.1866 155.802 54.0586 155.802 53.8879C155.802 53.6319 155.674 53.4186 155.418 53.2479ZM126.874 87.68H127.13L126.874 87.2959V87.68ZM125.466 89.856V89.6H125.21L125.466 89.856Z" fill="black"/>
</svg>
